<mxfile host="app.diagrams.net" modified="2023-04-09T09:56:37.159Z" agent="Mozilla/5.0 (Macintosh; Intel Mac OS X 10_15_7) AppleWebKit/537.36 (KHTML, like Gecko) Chrome/111.0.0.0 Safari/537.36" version="21.1.5" etag="VJnMks1QKvKcHRxGphKY" type="github">
  <diagram name="Page-1" id="givzGE_alVX35675La9L">
    <mxGraphModel>
      <root>
        <mxCell id="0" />
        <mxCell id="1" parent="0" />
      </root>
    </mxGraphModel>
  </diagram>
</mxfile>
